<?xml version="1.0" standalone="no"?>
<!DOCTYPE svg PUBLIC "-//W3C//DTD SVG 20010904//EN"
 "http://www.w3.org/TR/2001/REC-SVG-20010904/DTD/svg10.dtd">
<svg version="1.0" xmlns="http://www.w3.org/2000/svg"
 width="700.000000pt" height="700.000000pt" viewBox="0 0 700.000000 700.000000"
 preserveAspectRatio="xMidYMid meet">
<metadata>
Created by potrace 1.11, written by Peter Selinger 2001-2013
</metadata>
<g transform="translate(0.000000,700.000000) scale(0.100000,-0.100000)"
fill="#000000" stroke="none">
<path d="M256 6114 c-28 -6 -64 -18 -81 -27 -54 -29 -115 -95 -143 -154 l-27
-58 0 -955 0 -955 26 -55 c43 -91 140 -167 234 -185 40 -7 2711 -7 2750 0 54
11 129 51 169 91 42 42 84 122 92 176 6 43 6 1826 0 1857 -26 125 -96 209
-210 254 -50 20 -69 20 -1405 21 -956 1 -1368 -2 -1405 -10z"/>
<path d="M3945 6105 c-73 -24 -136 -73 -174 -134 -25 -42 -34 -65 -47 -126 -7
-30 -5 -1826 1 -1860 11 -53 51 -129 91 -169 37 -37 117 -82 166 -92 33 -7
2717 -6 2753 1 97 20 190 93 234 185 l26 55 2 935 c2 675 -1 948 -9 980 -24
95 -111 190 -209 226 -40 16 -164 17 -1409 18 -1343 1 -1366 1 -1425 -19z"/>
<path d="M273 3274 c-24 -6 -43 -9 -43 -7 0 13 -101 -52 -131 -84 -52 -56 -58
-66 -79 -124 -19 -51 -20 -86 -17 -994 l2 -940 27 -57 c46 -98 135 -167 239
-186 24 -4 652 -7 1394 -7 1332 2 1351 2 1401 22 67 26 118 66 156 121 60 87
59 62 59 1052 0 498 -2 921 -6 940 -24 137 -147 252 -283 267 -102 11 -2675 8
-2719 -3z"/>
<path d="M4060 3280 c-112 -6 -182 -34 -244 -96 -40 -40 -80 -116 -91 -169 -3
-16 -6 -440 -6 -942 0 -703 3 -921 12 -955 29 -98 106 -184 199 -220 l55 -21
1360 -2 c780 0 1375 3 1395 8 104 27 185 93 228 185 l27 57 0 955 0 955 -27
56 c-50 101 -150 174 -254 185 -65 7 -2533 10 -2654 4z"/>
</g>
</svg>
