<?xml version="1.0" encoding="utf-8"?>
<!-- Generator: Adobe Illustrator 21.1.0, SVG Export Plug-In . SVG Version: 6.00 Build 0)  -->
<svg version="1.1" id="Layer_1" xmlns="http://www.w3.org/2000/svg" xmlns:xlink="http://www.w3.org/1999/xlink" x="0px" y="0px"
	 viewBox="0 0 512 512" style="enable-background:new 0 0 512 512;" xml:space="preserve">
<style type="text/css">
	.st0{fill:#FFFFFF;}
</style>
<path class="st0" d="M488,448H24c-13.3,0-24-10.7-24-24V88c0-13.3,10.7-24,24-24h464c13.3,0,24,10.7,24,24v336
	C512,437.3,501.3,448,488,448z M48,124v96c0,6.6,5.4,12,12,12h160c6.6,0,12-5.4,12-12v-96c0-6.6-5.4-12-12-12H60
	C53.4,112,48,117.4,48,124z M60,400h160c6.6,0,12-5.4,12-12v-96c0-6.6-5.4-12-12-12H60c-6.6,0-12,5.4-12,12v96
	C48,394.6,53.4,400,60,400z M464,388v-96c0-6.6-5.4-12-12-12H292c-6.6,0-12,5.4-12,12v96c0,6.6,5.4,12,12,12h160
	C458.6,400,464,394.6,464,388z M464,220v-96c0-6.6-5.4-12-12-12H292c-6.6,0-12,5.4-12,12v96c0,6.6,5.4,12,12,12h160
	C458.6,232,464,226.6,464,220z"/>
</svg>
